# xmcd
#
# Track frame offsets: 
#        150
#        19225
#        31212
#        47157
#        67795
#        90217
#        105252
#        117130
#        130175
#        141577
#        159527
#        173090
#        191027
#        206432
#        218592
#        237912
#        255180
#        281967
#        298460
#        311387
#
# Disc length: 4391 seconds
#
# Revision: 5
# Processed by: cddbd v1.5.2PL0 Copyright (c) Steve Scherf et al.
# Submitted via: ExactAudioCopyFreeDBPlugin 1.0
#
DISCID=18112514
DTITLE=Various Artist - Rhythm, Love and Soul^ The Sexiest Songs of R
DTITLE=&B [disc 3]
DYEAR=2003
DGENRE=Rhythm and Blues
TTITLE0=The Spinners - Could It Be I Am Falling in Love
TTITLE1=The Supremes - I Hear a Symphony
TTITLE2=Low Rawls - You'll Never Find Another Love Like Mine
TTITLE3=Barry White - You're the First, the Last, My Everything
TTITLE4=Earth, Wind and Fire - Reasons
TTITLE5=Eddie Holman - Hey There Lonely Girl
TTITLE6=Tommy Edwards - It's All in the Game
TTITLE7=Smokey Robinson and The Miracles - Would I Love You
TTITLE8=James Carr - The Dark End of the Street
TTITLE9=The Jackson 5 - I'll Be There
TTITLE10=Gloria Gaynor - Never Can Say Goodbye
TTITLE11=Marvin Gaye - Let's Get It On
TTITLE12=The Persuaders - Thin Line Between Love and Hate
TTITLE13=Aaron Neville - Tell It like It Is
TTITLE14=Bill Withers - Lean on Me
TTITLE15=Dobie Gray - Drift Away
TTITLE16=Teddy Pendergrass - Turn Off the Lights
TTITLE17=The Temprees - Dedicated to the One I Love
TTITLE18=Johnny Adams - Release Me
TTITLE19=Peaches and Herb - Reunited
EXTD=
EXTT0=
EXTT1=
EXTT2=
EXTT3=
EXTT4=
EXTT5=
EXTT6=
EXTT7=
EXTT8=
EXTT9=
EXTT10=
EXTT11=
EXTT12=
EXTT13=
EXTT14=
EXTT15=
EXTT16=
EXTT17=
EXTT18=
EXTT19=
PLAYORDER=
